Coordinates
version=1
nRows=32
nColumns=12
inDegrees=yes

Units are S.I. units (second, meters, Newtons, ...)
Angles are in degrees

endheader
time	SC_y	SC_z	SC_x	AC_y	AC_z	AC_x	GH_y	GH_z	GH_yy	EL_x	PS_y
       0.0              -29.57          31.52          4.074          52.93         -2.428          -19.3          45.12          54.25          13.69          69.17          64.12
   0.02702              -29.57          31.52          4.082          52.93         -2.428          -19.3          45.13          54.24           13.7          69.18          64.11
   0.05405              -29.57          31.51           4.09          52.94         -2.428          -19.3          45.14          54.23          13.71          69.18          64.11
   0.08107              -29.57          31.51          4.099          52.94         -2.428         -19.29          45.14          54.22          13.72          69.19           64.1
    0.1081              -29.57           31.5          4.109          52.94         -2.428         -19.29          45.15          54.21          13.73          69.19           64.1
    0.1351              -29.58           31.5          4.119          52.94         -2.428         -19.29          45.16           54.2          13.74           69.2          64.09
    0.1621              -29.58          31.49          4.129          52.94         -2.429         -19.28          45.17          54.19          13.75          69.21          64.08
    0.1892              -29.58          31.49          4.141          52.95         -2.429         -19.28          45.18          54.17          13.76          69.21          64.08
    0.2162              -29.59          31.48          4.153          52.95         -2.429         -19.28          45.19          54.16          13.78          69.22          64.07
    0.2432              -29.59          31.48          4.167          52.95         -2.429         -19.27           45.2          54.15          13.79          69.23          64.06
    0.2702              -29.59          31.47          4.181          52.96          -2.43         -19.27          45.21          54.13          13.81          69.24          64.05
    0.2973               -29.6          31.46          4.196          52.96          -2.43         -19.26          45.22          54.11          13.82          69.25          64.04
    0.3243               -29.6          31.45          4.213          52.96          -2.43         -19.25          45.23           54.1          13.84          69.26          64.03
    0.3513              -29.61          31.45           4.23          52.97          -2.43         -19.25          45.25          54.08          13.86          69.27          64.02
    0.3783              -29.61          31.44           4.25          52.97         -2.431         -19.24          45.26          54.06          13.88          69.28          64.01
    0.4054              -29.62          31.43          4.271          52.97         -2.431         -19.23          45.28          54.03           13.9          69.29           64.0
    0.4324              -29.63          31.42          4.293          52.98         -2.432         -19.23           45.3          54.01          13.93          69.31          63.98
    0.4594              -29.63           31.4          4.318          52.99         -2.432         -19.22          45.32          53.98          13.96          69.32          63.97
    0.4864              -29.64          31.39          4.345          52.99         -2.432         -19.21          45.34          53.95          13.99          69.34          63.95
    0.5135              -29.65          31.38          4.375           53.0         -2.433          -19.2          45.36          53.92          14.02          69.36          63.94
    0.5405              -29.66          31.36          4.408          53.01         -2.434         -19.19          45.39          53.89          14.05          69.38          63.92
    0.5675              -29.67          31.35          4.443          53.01         -2.434         -19.18          45.42          53.85          14.09           69.4          63.89
    0.5945              -29.68          31.33          4.483          53.02         -2.435         -19.16          45.45           53.8          14.14          69.42          63.87
    0.6215              -29.69          31.31          4.527          53.03         -2.436         -19.15          45.49          53.76          14.18          69.45          63.84
    0.6486               -29.7          31.28          4.575          53.04         -2.436         -19.13          45.53           53.7          14.24          69.48          63.81
    0.6756              -29.72          31.26           4.63          53.05         -2.437         -19.11          45.57          53.65           14.3          69.51          63.78
    0.7026              -29.74          31.23          4.691          53.07         -2.438         -19.09          45.62          53.58          14.36          69.55          63.75
    0.7296              -29.75           31.2          4.759          53.08          -2.44         -19.07          45.67          53.51          14.44          69.59           63.7
    0.7567              -29.78          31.16          4.837           53.1         -2.441         -19.04          45.74          53.42          14.52          69.64          63.66
    0.7837               -29.8          31.12          4.925          53.12         -2.443         -19.01          45.81          53.33          14.62          69.69          63.61
    0.8107              -29.83          31.07          5.025          53.14         -2.444         -18.98          45.89          53.22          14.73          69.76          63.55
    0.8377              -29.86          31.02           5.14          53.17         -2.446         -18.94          45.98          53.09          14.85          69.83          63.48
